<svg width="12" height="13" viewBox="0 0 12 13" fill="none" xmlns="http://www.w3.org/2000/svg">
<path fill-rule="evenodd" clip-rule="evenodd" d="M11.2803 2.03033C11.5732 1.73744 11.5732 1.26257 11.2803 0.969672C10.9874 0.676779 10.5126 0.676779 10.2197 0.969672L5.74999 5.43934L1.28032 0.969672C0.987429 0.676779 0.512555 0.676779 0.219662 0.969672C-0.0732309 1.26257 -0.0732309 1.73744 0.219662 2.03033L4.68933 6.5L0.219662 10.9697C-0.0732312 11.2626 -0.0732312 11.7374 0.219662 12.0303C0.512555 12.3232 0.987429 12.3232 1.28032 12.0303L5.74999 7.56066L10.2197 12.0303C10.5126 12.3232 10.9874 12.3232 11.2803 12.0303C11.5732 11.7374 11.5732 11.2626 11.2803 10.9697L6.81065 6.5L11.2803 2.03033Z" fill="black" fill-opacity="0.5"/>
</svg>
